#tb 0: 1/48000
#media_type 0: audio
#codec_id 0: s337m_24
#sample_rate 0: 48000
#channel_layout_name 0: 7.1
0,          0,          0,       41,      246, 0x00000000
0,         41,         41,     1920,    11520, 0x8710c59f
0,       1961,       1961,     1920,    11520, 0xb584d70c
0,       3881,       3881,     1918,    11508, 0xc7e38dab
0,       5799,       5799,     1920,    11520, 0x00aab5f9
0,       7719,       7719,     1922,    11286, 0x271ea420
